<svg width="64" height="64" viewBox="0 0 64 64" fill="none" xmlns="http://www.w3.org/2000/svg">
  <defs>
    <linearGradient id="bg" x1="10" y1="8" x2="52" y2="56" gradientUnits="userSpaceOnUse">
      <stop stop-color="#78AFFF"/>
      <stop offset="1" stop-color="#4EC5BC"/>
    </linearGradient>
    <linearGradient id="note" x1="20" y1="18" x2="42" y2="46" gradientUnits="userSpaceOnUse">
      <stop stop-color="#356DDE"/>
      <stop offset="1" stop-color="#2B9FB0"/>
    </linearGradient>
  </defs>
  <rect x="8" y="8" width="48" height="48" rx="16" fill="url(#bg)"/>
  <rect x="10" y="10" width="44" height="44" rx="14" fill="white" fill-opacity="0.88"/>
  <path d="M40.5 19.5V39.5C40.5 43.0899 37.5899 46 34 46C30.4101 46 27.5 43.0899 27.5 39.5C27.5 35.9101 30.4101 33 34 33C35.576 33 37.021 33.561 38 34.4941V24.9453L26 27.7383V43C26 46.3137 23.3137 49 20 49C16.6863 49 14 46.3137 14 43C14 39.6863 16.6863 37 20 37C21.4937 37 22.8598 37.546 23.9102 38.4492V21.4023C23.9102 20.0017 24.8735 18.7854 26.2422 18.4746L38.7422 15.6289C39.6225 15.4282 40.5 16.0979 40.5 17V19.5Z" fill="url(#note)"/>
  <circle cx="45.5" cy="19.5" r="3.5" fill="#EAF4FF"/>
</svg>
